<?xml version="1.0" encoding="utf-8"?>
<!-- Generator: Adobe Illustrator 26.3.1, SVG Export Plug-In . SVG Version: 6.00 Build 0)  -->
<svg version="1.1" id="Layer_1" xmlns="http://www.w3.org/2000/svg" xmlns:xlink="http://www.w3.org/1999/xlink" x="0px" y="0px"
	 viewBox="0 0 1200 800" style="enable-background:new 0 0 1200 800;" xml:space="preserve">
<style type="text/css">
	.st0{fill:#757575;}
</style>
<path class="st0" d="M1011.2,394c5.3-5.7,13.2-8.7,21-8.7c23.5,0,29.4,16,29.4,36.4V469c0,1.2-0.9,2.1-2.1,2.1h-14.8
	c-1.2,0-2.2-0.9-2.2-2.1v-45.3c0-12.3-1.5-20.6-14.8-20.6c-16.7,0-16.7,16-16.7,29.7V469c0,1.2-1,2.1-2.2,2.1H994
	c-1.2,0-2.2-0.9-2.2-2.1v-79.2c0-0.9,1-2,2.2-2h14.8c1.2,0,2.2,1.1,2.2,2L1011.2,394z M981.3,426.9c0,25-18.9,44.2-43.1,44.2
	c-24,0-43.1-19.2-43.1-44.2c0-24.9,19.1-44.2,43.1-44.2C962.4,382.7,981.3,402,981.3,426.9 M914.3,426.9c0,13.8,10.7,25.6,23.9,25.6
	c13.6,0,24.2-11.7,24.2-25.6c0-13.9-10.7-25.4-24.2-25.4C924.9,401.5,914.3,413,914.3,426.9 M848,405.9h-13.7
	c-1.2,0-2.2-0.5-2.2-1.8v-14.4c0-0.9,1-2,2.2-2h3.1c10.7,0,10.7-8,10.7-12.3v-9.1c0-1.2,1-2,2.2-2H865c1.2,0,2.1,0.7,2.1,2v21.3h18
	c1.2,0,2.2,1.1,2.2,2v14.4c0,1.2-1,1.8-2.2,1.8h-18v26.6c0,6.7-0.5,17.9,7.2,19.7c4.3,0.5,6.9-0.5,9.4-1.6c0,0,0.9-0.3,1.4-0.3
	c1.2,0,2.2,0.9,2.2,2v15.1c0,0.5-0.7,1.6-1.5,1.8h0.2c-3.6,1.6-8.4,2-12.2,2c-20.6,0-25.8-14.9-25.8-33.2L848,405.9L848,405.9z
	 M768.4,433.6c0.9,11.7,8.9,19.9,20.8,19.9c10.3,0,14.9-5.7,20.3-14.6c0.7-0.9,1.5-1.2,2.7-0.5l12.5,7.3c0.9,0.7,1.6,1.6,1,2.7v-0.2
	c-7.6,14.6-21,22.9-36.8,22.9c-24.6,0-39.7-19.2-39.7-43.7c0-25.4,13.4-44.7,39.3-44.7c25.9,0,38.3,21.8,38.3,46.5v2.5
	c0,1.2-1,1.9-2.2,1.9H768.4z M807.4,417c-2.4-9.1-8.9-16.9-18.7-16.9c-9.1,0-16.5,8.2-18.9,16.9H807.4z M737,469
	c0,1.2-1,2.1-2.1,2.1h-14.8c-1.2,0-2.2-0.9-2.2-2.1V333.5c0-0.9,1-2,2.2-2H735c1,0,2.1,1.1,2.1,2V469z M624.4,330.8
	c0-0.9,1-1.9,2.2-1.9h14.9c1.2,0,2.2,1.1,2.2,1.9V394c6.4-7.1,14.6-11.4,24.6-11.4c23.5,0,38.1,20.6,38.1,43.7
	c0,23.8-13.7,44.8-38.8,44.8c-9.1,0-17.9-4.6-24.1-11.2v6.4c0,1.2-1,2.1-2.2,2.1h-14.8c-1.2,0-2.2-0.9-2.2-2.1L624.4,330.8
	L624.4,330.8z M687.6,426.7c0-14.2-8.3-26.3-22.9-26.3c-13.7,0-22,12.8-22,26.3c0,13.9,7.9,26.8,22,26.8
	C679.5,453.5,687.6,441.3,687.6,426.7 M524.9,438.4l-13.7,31.3c-0.3,0.5-1.5,1.4-2.1,1.4h-16.8c-1.7,0-2.6-1.4-2.1-3l60-135.1
	c1-1.6,3.3-1.6,4.1,0c19.4,43.9,40.6,91.3,60,135.1c0.5,1.6-0.3,3-2.1,3h-16.9c-0.7,0-1.7-0.9-2.1-1.4c-4.3-10.1-9.3-21-13.7-31.3
	L524.9,438.4L524.9,438.4z M552.2,374.7l-19.4,44.9h38.8L552.2,374.7z M157.7,469c0,1.2-1,2.1-2.1,2.1h-14.9c-1.2,0-2.3-0.9-2.3-2.1
	V333.1c0-0.9,1-2,2.3-2h14.9c1,0,2.1,1.1,2.1,2L157.7,469L157.7,469z M196.7,469c0,1.2-1,2.1-2.1,2.1h-14.9c-1.2,0-2.2-0.9-2.2-2.1
	V333.1c0-0.9,1-2,2.2-2h14.9c1,0,2.1,1.1,2.1,2L196.7,469L196.7,469z M235.6,469c0,1.2-1,2.1-2.1,2.1h-14.9c-1.2,0-2.2-0.9-2.2-2.1
	V333.1c0-0.9,1-2,2.2-2h14.9c1,0,2.1,1.1,2.1,2V469z M274.8,469c0,1.2-1,2.1-2.1,2.1h-14.9c-1.2,0-2.3-0.9-2.3-2.1V333.1
	c0-0.9,1-2,2.3-2h14.9c1,0,2.1,1.1,2.1,2V469z M428.1,330.9c1.2,0,2.1,1.1,2.1,2.1v15.3c0,1.2-0.9,2.3-2.1,2.3H295.9
	c-0.9,0-1.9-1.1-1.9-2.3v-15.3c0-1.1,1-2.1,1.9-2.1H428.1z M428.1,371.2c1.2,0,2.1,1.1,2.1,2.1v15.3c0,1.2-0.9,2.3-2.1,2.3H295.9
	c-0.9,0-1.9-1.1-1.9-2.3v-15.3c0-1.1,1-2.1,1.9-2.1H428.1z M428.1,411.3c1.2,0,2.1,1.1,2.1,2.1v15.3c0,1.3-0.9,2.3-2.1,2.3H295.9
	c-0.9,0-1.9-1.1-1.9-2.3v-15.3c0-1.1,1-2.1,1.9-2.1H428.1z M428.1,451.3c1.2,0,2.1,1.1,2.1,2.1v15.3c0,1.2-0.9,2.3-2.1,2.3H295.9
	c-0.9,0-1.9-1.1-1.9-2.3v-15.3c0-1.1,1-2.1,1.9-2.1H428.1z"/>
</svg>
