<?xml version="1.0" encoding="utf-8"?>
<!-- Generator: Adobe Illustrator 26.4.0, SVG Export Plug-In . SVG Version: 6.00 Build 0)  -->
<svg version="1.1" id="Layer_1" xmlns="http://www.w3.org/2000/svg" xmlns:xlink="http://www.w3.org/1999/xlink" x="0px" y="0px"
	 viewBox="0 0 2038 2500" style="enable-background:new 0 0 2038 2500;" xml:space="preserve">
<style type="text/css">
	.st0{fill:#D8D8D8;}
</style>
<path class="st0" d="M1068.1,436.5c129.4-170.6,309.3-171.4,309.3-171.4s26.8,160.3-101.8,314.9c-137.3,165-293.4,138-293.4,138
	S953,588.2,1068.1,436.5z M998.7,830.3c66.6,0,190.1-91.6,351-91.6c276.9,0,385.8,197,385.8,197s-213.1,108.9-213.1,373.2
	c0,298.2,265.4,400.9,265.4,400.9s-185.5,522.2-436.1,522.2c-115.1,0-204.6-77.5-325.8-77.5c-123.6,0-246.2,80.4-326.1,80.4
	c-228.8,0.1-517.9-495.2-517.9-893.4c0-391.7,244.7-597.2,474.2-597.2C805.4,744.3,921.1,830.3,998.7,830.3L998.7,830.3z"/>
</svg>
