<?xml version="1.0" encoding="utf-8"?>
<!-- Generator: Adobe Illustrator 26.4.0, SVG Export Plug-In . SVG Version: 6.00 Build 0)  -->
<svg version="1.1"
	 id="Layer_1" xmlns:svg="http://www.w3.org/2000/svg" xmlns:rdf="http://www.w3.org/1999/02/22-rdf-syntax-ns#" xmlns:cc="http://creativecommons.org/ns#" xmlns:inkscape="http://www.inkscape.org/namespaces/inkscape" xmlns:dc="http://purl.org/dc/elements/1.1/" xmlns:sodipodi="http://sodipodi.sourceforge.net/DTD/sodipodi-0.dtd" inkscape:version="0.48.5 r10040" sodipodi:docname="johnny-automatic-open-book.svg"
	 xmlns="http://www.w3.org/2000/svg" xmlns:xlink="http://www.w3.org/1999/xlink" x="0px" y="0px" viewBox="0 0 576 576"
	 style="enable-background:new 0 0 576 576;" xml:space="preserve">
<style type="text/css">
	.st0{fill:#BFBFBF;stroke:#D8D8D8;stroke-width:3.3054;stroke-miterlimit:6.6107;}
	.st1{fill:none;stroke:#D8D8D8;stroke-width:3.3054;stroke-linecap:round;stroke-miterlimit:6.6107;}
</style>
<sodipodi:namedview  bordercolor="#666666" borderopacity="1" fit-margin-bottom="0" fit-margin-left="0" fit-margin-right="0" fit-margin-top="0" gridtolerance="10" guidetolerance="10" id="namedview3061" inkscape:current-layer="Layer_1" inkscape:cx="231.43641" inkscape:cy="254.50549" inkscape:object-nodes="true" inkscape:object-paths="true" inkscape:pageopacity="0" inkscape:pageshadow="2" inkscape:snap-global="true" inkscape:window-height="721" inkscape:window-maximized="1" inkscape:window-width="1366" inkscape:window-x="1916" inkscape:window-y="-4" inkscape:zoom="0.35355339" objecttolerance="10" pagecolor="#ffffff" showgrid="false">
	</sodipodi:namedview>
<path id="path3033-4-1-2" inkscape:connector-curvature="0" sodipodi:nodetypes="ccccccccccccc" class="st0" d="M548.9,274.6
	c10.5,13.6,17.9,26.4,25.4,39.2c-89.2-1.8-152.9,7.9-182.7,24.6c-22,19.4-56.8,22.5-84.3,21.5c-64.2,12.7-134.8,49.7-190,77.7
	C77,377.3,35.9,308.9,1.7,252.4c-0.7-3.1,7-8.7,9.9-8.9c-0.8,4.8,0,0-0.8,4.8C53,311.7,82.2,362,124,422.7
	c53.4-26.1,116.3-68.3,193.1-77.2c11.2-17.8,47.8-18.7,55.2-13.9c61.1-38.2,133.5-27.6,183.1-29.5c-6-18-6.5-25.6-7.5-44.2"/>
<path id="path3043-8-5-2" inkscape:connector-curvature="0" sodipodi:nodetypes="cc" class="st1" d="M10.8,248.3
	c1.4-8.2,3.7-25.2,12.2-29.1"/>
<path id="path3045-2-2-1" inkscape:connector-curvature="0" class="st1" d="M23,219.2c51.7-34.3,124-88.8,184.2-38.2"/>
<path id="path3047-4-7-6" inkscape:connector-curvature="0" sodipodi:nodetypes="ccc" class="st1" d="M207.2,181
	c35.6-59.4,113.4-29.9,170.2-42.5c55.9,39.3,115.8,78.8,170.4,119.4"/>
<path id="path3049-5-6-8" inkscape:connector-curvature="0" sodipodi:nodetypes="cc" class="st1" d="M343.8,329.1
	c11.1-55.3,137.4-59.8,204-71.3"/>
<path id="path3051-5-1-5" inkscape:connector-curvature="0" sodipodi:nodetypes="cc" class="st1" d="M207.2,181
	c43.1,39.5,93.3,108.9,136.6,148.1"/>
<path id="path3053-1-4-7" inkscape:connector-curvature="0" class="st1" d="M23,219.2C59.4,270.3,89.7,326.3,125.6,378"/>
<path id="path3055-7-2-6" inkscape:connector-curvature="0" sodipodi:nodetypes="cc" class="st1" d="M125.6,378
	c65.8-30,148.2-89.5,218.2-48.9"/>
<path id="path3057-1-3-1" inkscape:connector-curvature="0" sodipodi:nodetypes="cc" class="st1" d="M125.6,378
	c-0.9,9.6-0.2,35-1.6,44.6"/>
</svg>
