<?xml version="1.0" encoding="utf-8"?>
<!-- Generator: Adobe Illustrator 26.2.1, SVG Export Plug-In . SVG Version: 6.00 Build 0)  -->
<svg version="1.1" id="Layer_3" xmlns="http://www.w3.org/2000/svg" xmlns:xlink="http://www.w3.org/1999/xlink" x="0px" y="0px"
	 viewBox="0 0 600 600" style="enable-background:new 0 0 600 600;" xml:space="preserve">
<style type="text/css">
	.st0{fill:#C9C9C9;stroke:#666666;stroke-width:2;stroke-miterlimit:10;}
	.st1{fill:none;stroke:#666666;stroke-width:1.5;stroke-miterlimit:10;}
	.st2{fill:none;stroke:#666666;stroke-miterlimit:10;}
	.st3{fill:none;stroke:#666666;stroke-width:2;stroke-miterlimit:10;}
	.st4{opacity:0.6;fill:#A3A3A3;stroke:#666666;stroke-miterlimit:10;enable-background:new    ;}
	.st5{fill:#FFFFFF;stroke:#666666;stroke-width:1.5;stroke-miterlimit:10;}
	.st6{stroke:#666666;stroke-miterlimit:10;}
	.st7{stroke:#666666;stroke-width:1.5;stroke-miterlimit:10;}
	.st8{fill:#BABABA;stroke:#666666;stroke-width:1.5;stroke-miterlimit:10;}
	.st9{opacity:0.2;stroke:#666666;stroke-miterlimit:10;enable-background:new    ;}
</style>
<polygon class="st0" points="26.3,307.4 64.7,273.8 93.8,172.5 179.9,184.3 199,167.2 198,101.2 195,93.2 203,89.2 261,103.2 
	258,109.2 258,119.2 336.2,137.2 402.6,119.2 424.8,168.2 481.9,206.2 559,313.2 559,317.2 549.2,316.7 535.6,419.2 527.3,420.7 
	523.4,419.4 536.5,319.2 530,319.2 534.5,326.4 533,331 527,330.3 514.5,431.2 446,444.7 443.5,453.2 279,479.7 118.5,440.7 
	107.7,341.8 86.3,340.5 97,429.8 89,433.2 77.7,431.5 73,395 62.3,311.2 26,311.2 "/>
<line class="st1" x1="528" y1="329" x2="460" y2="329.3"/>
<polyline class="st2" points="561.5,312 528,311.3 531,316.5 "/>
<line class="st2" x1="535.5" y1="324.5" x2="460" y2="323.3"/>
<polyline class="st3" points="63.3,308.5 265,306 404,133 488,320 492,312 426,167 "/>
<polygon class="st4" points="265.7,118.9 249,164.2 333.5,136.6 "/>
<polyline class="st2" points="31,304 262,297 404,118 "/>
<polyline class="st2" points="258.5,117 260,132 208,199 200,200 198,165 "/>
<polyline class="st2" points="208,199 204,95 202,87 "/>
<polyline class="st2" points="199,100 206,96 260.5,108 "/>
<polyline class="st3" points="94.8,171.4 170,284.1 162,286.1 99,189.5 65,292 58,292 65.7,272.5 "/>
<polyline class="st2" points="67,288 85,277 153,274 "/>
<line class="st2" x1="180.9" y1="183.1" x2="170" y2="284.1"/>
<line class="st2" x1="266.9" y1="303" x2="279.4" y2="477.9"/>
<polyline class="st2" points="77,417 88,420 96,418 "/>
<polyline class="st2" points="116,425 277,455 447,434 "/>
<line class="st2" x1="449" y1="428" x2="516" y2="417"/>
<polyline class="st2" points="526,409 529.3,410.3 538.3,409.7 "/>
<polygon class="st4" points="459,343 525.2,339.3 526.3,329.7 460,330 "/>
<line class="st2" x1="537.5" y1="316.5" x2="551" y2="315.5"/>
<polyline class="st2" points="536.7,321.7 542,321 549.7,321.7 "/>
<line class="st2" x1="542" y1="316.7" x2="528.5" y2="419.5"/>
<polyline class="st3" points="87,340 80,340 90,432.5 "/>
<g>
	<polygon class="st5" points="139.8,346.2 145.3,401.3 170,402.8 168.2,344.8 	"/>
	<polygon class="st6" points="143.5,348.8 148,399.2 155.5,399.5 151.5,349 	"/>
	<polygon class="st6" points="154.2,349 158.8,400.2 166.8,400 165.2,348.5 	"/>
	<polyline class="st1" points="168.8,346 170,346.2 171.2,403 170,402.8 	"/>
</g>
<g>
	<polygon class="st5" points="194.5,345.4 200.3,405.4 226.2,407 224.4,343.8 	"/>
	<polygon class="st6" points="198.4,348.1 203.1,403.2 211,403.4 206.8,348.4 	"/>
	<polygon class="st6" points="209.7,348.4 214.4,404.3 222.8,404 221.2,347.8 	"/>
	<polyline class="st7" points="224.9,345.1 226.2,345.4 227.5,407.2 226.2,407 	"/>
</g>
<g>
	<polygon class="st8" points="330.3,335.3 334,423 414.3,415.3 422.3,335 	"/>
	<polygon class="st6" points="337.3,340.5 339,418.8 411,410.2 417.7,340.1 396.3,340 393.3,410.5 389,410.5 391.7,340.5 365,340.5 
		366,413.5 361,413.5 360,340.5 	"/>
	<line class="st2" x1="405.7" y1="407" x2="393.7" y2="408"/>
	<line class="st2" x1="388.3" y1="408.3" x2="365.7" y2="410.7"/>
	<line class="st2" x1="360.3" y1="411" x2="339.7" y2="412.3"/>
	<polyline class="st8" points="330.3,336.1 327.3,336.8 330.8,423.3 334,423 	"/>
</g>
<polyline class="st2" points="488,320 461,317 447,443.5 "/>
<line class="st2" x1="461" y1="317" x2="389" y2="152"/>
<polygon class="st4" points="64.3,323.2 271.3,324.7 392,167 396.3,142.7 263.3,306.7 62.3,310.7 "/>
<g>
	<polygon class="st2" points="238.3,224.3 214,260.7 240.7,261 264,222.3 	"/>
	<polygon class="st6" points="218,258.5 230.4,240.3 239.3,227.1 257.3,226.5 238.3,258.5 	"/>
	<polyline class="st1" points="214,260.7 215,262.3 241.3,263.7 240.7,261 	"/>
	<polyline class="st1" points="241.3,263.7 264.7,226.3 264,222.3 	"/>
</g>
<polyline class="st2" points="111,275 107.5,229 123,227 "/>
<line class="st2" x1="127.5" y1="233.5" x2="129.5" y2="275"/>
<polygon class="st6" points="113.5,272.5 109.5,231.2 123.5,229.4 126,272.5 "/>
<g>
	<polygon class="st5" points="500.6,401.9 496,341.7 470.2,339.6 470.7,402.9 	"/>
	<polygon class="st6" points="496.7,399.1 493.1,343.9 485.3,343.5 488.3,398.6 	"/>
	<polygon class="st6" points="485.4,398.6 481.9,342.6 473.5,342.7 473.9,398.9 	"/>
	<polyline class="st7" points="470.2,401.5 468.9,401.2 468.9,339.3 470.2,339.6 	"/>
</g>
<g>
	<polygon class="st8" points="339,232.4 341.9,312.1 406.5,305.1 412.9,232.1 	"/>
	<polygon class="st6" points="344.6,237.1 346,308.2 403.8,300.5 409.1,236.8 392,236.6 389.6,300.7 386.1,300.7 388.3,237.1 
		366.8,237.1 367.6,303.4 363.6,303.4 362.8,237.1 	"/>
	<line class="st2" x1="399.5" y1="297.5" x2="389.9" y2="298.4"/>
	<line class="st2" x1="385.6" y1="298.7" x2="367.4" y2="300.9"/>
	<line class="st2" x1="363.1" y1="301.2" x2="346.5" y2="302.4"/>
	<polyline class="st8" points="339,233.1 336.6,233.8 339.4,312.4 341.9,312.1 	"/>
</g>
<g>
	<polygon class="st2" points="280.2,161 255.9,197.3 282.5,197.6 305.9,159 	"/>
	<polygon class="st6" points="259.9,195.1 272.2,176.9 281.2,163.7 299.2,163.1 280.2,195.1 	"/>
	<polyline class="st1" points="255.9,197.3 256.9,199 283.2,200.3 282.5,197.6 	"/>
	<polyline class="st1" points="283.2,200.3 306.5,163 305.9,159 	"/>
</g>
<polygon class="st9" points="504.3,308 494.4,312.8 424.1,167.4 434,174.7 443,180.6 "/>
</svg>
