<?xml version="1.0" encoding="utf-8"?>
<!-- Generator: Adobe Illustrator 26.2.1, SVG Export Plug-In . SVG Version: 6.00 Build 0)  -->
<svg version="1.1" id="Layer_1" xmlns="http://www.w3.org/2000/svg" xmlns:xlink="http://www.w3.org/1999/xlink" x="0px" y="0px"
	 viewBox="0 0 611 309.4" style="enable-background:new 0 0 611 309.4;" xml:space="preserve">
<style type="text/css">
	.st0{fill:#A3A3A3;stroke:#757575;stroke-miterlimit:10;}
	.st1{fill:#FFFDFD;stroke:#757575;stroke-miterlimit:10;}
	.st2{fill:#FFFFFF;stroke:#757575;stroke-miterlimit:10;}
</style>
<g>
	<path class="st0" d="M489.1,198.5c-3.1,5.8-15,21.5-24.8,25.9c-19,7.4-25.5,7-31,5.2c-3.6-0.5-1-6.9,0-9.3
		c0.3-2.8,12.1-19.2,17.6-24.8C457.2,190.5,489.1,198.5,489.1,198.5L489.1,198.5z"/>
	<path class="st0" d="M92,193.4c0,0-16.9,25.4-35.2,27.9c-18.5,2.7-40.8-3.9-48.6,0c-8,4-15.9,6.7-19.7,12.4c6.4,0.8,9-5.8,13.4,1
		c3.5,6.3,10,10.3,17.6,11.4c8.2,1.5,0.3,5.5,5.2,7.2c5.7,0.9,20.1,2.2,22.8,15.5c2.6,12.9,3.1,12.4,3.1,12.4s-4.4,18.9-12.4,22.8
		c6.7,1.4,36.9,4,42.4-23.8c5-27.4-9.5-35.2,4.1-43.4c12.6-7.5,75-32.5,109.6-41.4c18.6-5.3,46-9.6,79.6-9.3
		c42.4,1.3,91.9,18.2,144.8,13.4c43.3-4.7,176.9,3.4,163.4-7.2c13.5-7.7,3.9-34.8-14.5-55.8C550.4,116.3,440.1,88.7,424,84.8
		c-6.1-1.6-31.1-61.7-54.8-77.6c0,0-21-6.4-5.2,22.8c5.2,2.3,32.2,55.2-27.9,53.8C267.5,82.6,151.9,92.5,92,193.4L92,193.4z"/>
	<path class="st1" d="M319.5,191.3c-76.3-11.2-131.4,5.2-131.4,5.2c4.8-5.9,85-42.5,162.4-43.4c35.3-1.1,13.8,45.5,9.3,44.5
		C346.2,195.5,332.3,193,319.5,191.3L319.5,191.3z"/>
	<path class="st2" d="M484,152c26.4-18,60.7-14.9,59-1c-1,11.3-19.1,14-29,13.4C502.5,164.9,460.5,168.2,484,152L484,152z"/>
	<path class="st2" d="M409.5,199.6c17.9-11.7,16.6-34.7,77.6-25.9c12.4,1.5,120.1,17.4,90,22.8c-41.7,7.2-43.3,5.2-101.4,6.2
		L409.5,199.6L409.5,199.6z"/>
	<path class="st0" d="M473.6,161.3c-3.3,3.6-24.3,10.2-33.1,10.3c-9.6-0.2-60.2,20.8-69.3,33.1c-9.2,12.7-6,17.3-4.1,20.7
		c2.1,3.2,54.6-5.4,66.2-13.4c10.8-7.7,31.8-18.2,36.2-23.8c4.8-6.2,11.4-14.5,11.4-14.5"/>
</g>
</svg>
